<svg xmlns="http://www.w3.org/2000/svg" viewBox="0 0 400 1000" fill="none">
  <rect width="400" height="1000" fill="#000"/>

  <!-- Diagonal cut accent -->
  <polygon points="0,0 400,0 400,40 0,120" fill="#0A0A0A"/>
  <polygon points="0,0 400,0 400,4 0,84" fill="#8E49FA" opacity="0.15"/>

  <!-- Wafer brand mark (large background element) -->
  <circle cx="340" cy="160" r="140" stroke="rgba(142,73,250,.03)" stroke-width="1" fill="none"/>
  <circle cx="340" cy="160" r="120" stroke="rgba(142,73,250,.02)" stroke-width="0.5" fill="none"/>

  <!-- ===== HEADER ===== -->
  <g transform="translate(28, 38)">
    <path d="M 24 2 A 22 22 0 1 1 24 46 L 24 2" stroke="#8E49FA" stroke-width="2.5" fill="none"/>
    <line x1="24" y1="2" x2="24" y2="9" stroke="#8E49FA" stroke-width="1.2" stroke-linecap="round"/>
    <circle cx="31" cy="24" r="5" stroke="#8E49FA" stroke-width="1.8" fill="none"/>
    <circle cx="31" cy="24" r="2.2" fill="#8E49FA"/>

    <text x="58" y="22" fill="#fff" font-family="'Inter',Arial,sans-serif" font-size="22" font-weight="800" letter-spacing="-0.3">Faireye <tspan fill="#8E49FA">Semi</tspan></text>
    <text x="58" y="42" fill="#525252" font-family="'Noto Sans SC','PingFang SC',sans-serif" font-size="12" font-weight="500" letter-spacing="5">灵瞳半导体</text>

    <line x1="0" y1="60" x2="344" y2="60" stroke="#1A1A1A" stroke-width="1"/>
  </g>

  <!-- ===== TAGLINE ===== -->
  <g transform="translate(28, 170)">
    <text x="0" y="0" fill="#8E49FA" font-family="'Inter',Arial,sans-serif" font-size="34" font-weight="900" letter-spacing="-1">为边缘智能</text>
    <text x="0" y="42" fill="#fff" font-family="'Inter',Arial,sans-serif" font-size="34" font-weight="900" letter-spacing="-0.5">注入芯力量</text>
    <text x="0" y="64" fill="#3F3F3F" font-family="'Inter',Arial,sans-serif" font-size="9" font-weight="600" letter-spacing="3">POWERING EDGE INTELLIGENCE</text>
  </g>

  <!-- ===== PRODUCT ===== -->
  <g transform="translate(28, 280)">
    <text x="0" y="0" fill="#8E49FA" font-family="'Inter',Arial,sans-serif" font-size="8" font-weight="600" letter-spacing="2">核心产品</text>
    <text x="0" y="52" fill="#fff" font-family="'Inter',Arial,sans-serif" font-size="38" font-weight="900" letter-spacing="-1">SimpleEdge</text>
    <text x="0" y="90" fill="#8E49FA" font-family="'Inter',Arial,sans-serif" font-size="38" font-weight="900" letter-spacing="-0.5">AiSoC</text>
    <text x="0" y="112" fill="#525252" font-family="'Inter',Arial,sans-serif" font-size="10" font-weight="500" letter-spacing="1.5">RISC-V AI 加速器 SoC 芯片</text>
  </g>

  <!-- ===== CAR VISUAL (车规级) ===== -->
  <g transform="translate(255, 258)">
    <!-- Car body -->
    <path d="M 14,40 L 6,28 L 16,14 L 36,6 L 72,6 L 90,14 L 106,28 L 116,40 L 120,46 L 120,52 L 14,52 Z" stroke="#8E49FA" stroke-width="1.5" fill="none" stroke-linejoin="round"/>
    <!-- Rear wheel -->
    <circle cx="38" cy="56" r="10" stroke="#8E49FA" stroke-width="1.5" fill="none"/>
    <circle cx="38" cy="56" r="3.5" stroke="#8E49FA" stroke-width="0.8" fill="none"/>
    <!-- Front wheel -->
    <circle cx="97" cy="56" r="10" stroke="#8E49FA" stroke-width="1.5" fill="none"/>
    <circle cx="97" cy="56" r="3.5" stroke="#8E49FA" stroke-width="0.8" fill="none"/>
    <!-- Window graphic -->
    <path d="M 18,22 L 32,12 L 54,10 L 68,14 L 78,22" stroke="#8E49FA" stroke-width="0.7" fill="none" opacity="0.3" stroke-linejoin="round"/>
    <!-- AiSoC badge -->
    <text x="66" y="36" fill="#8E49FA" font-family="monospace" font-size="7" font-weight="700" text-anchor="middle" opacity="0.4">AiSoC</text>
    <!-- Speed lines -->
    <line x1="124" y1="38" x2="136" y2="38" stroke="#8E49FA" stroke-width="0.8" opacity="0.2" stroke-linecap="round"/>
    <line x1="126" y1="44" x2="140" y2="44" stroke="#8E49FA" stroke-width="0.8" opacity="0.2" stroke-linecap="round"/>
  </g>

  <!-- ===== DIVIDER ===== -->
  <line x1="28" y1="410" x2="372" y2="410" stroke="#1A1A1A" stroke-width="1"/>

  <!-- ===== FEATURES ===== -->
  <g transform="translate(28, 440)">
    <text x="0" y="0" fill="#8E49FA" font-family="'Inter',Arial,sans-serif" font-size="8" font-weight="600" letter-spacing="2">技术亮点</text>

    <g transform="translate(0, 28)">
      <line x1="0" y1="0" x2="344" y2="0" stroke="#1A1A1A" stroke-width="1"/>
      <text x="0" y="26" fill="#8E49FA" font-family="'Inter',Arial,sans-serif" font-size="14" font-weight="800">BitNet™ 无乘法器架构</text>
      <text x="0" y="42" fill="#525252" font-family="'Inter',Arial,sans-serif" font-size="9">能效提升 10 倍以上</text>
    </g>
    <g transform="translate(0, 72)">
      <line x1="0" y1="0" x2="344" y2="0" stroke="#1A1A1A" stroke-width="1"/>
      <text x="0" y="26" fill="#fff" font-family="'Inter',Arial,sans-serif" font-size="14" font-weight="800">车规级 AEC-Q100 认证</text>
      <text x="0" y="42" fill="#525252" font-family="'Inter',Arial,sans-serif" font-size="9">满足车载严苛环境可靠性要求</text>
    </g>
    <g transform="translate(0, 116)">
      <line x1="0" y1="0" x2="344" y2="0" stroke="#1A1A1A" stroke-width="1"/>
      <text x="0" y="26" fill="#fff" font-family="'Inter',Arial,sans-serif" font-size="14" font-weight="800">&lt; 100mW 超低功耗</text>
      <text x="0" y="42" fill="#525252" font-family="'Inter',Arial,sans-serif" font-size="9">小电池容量下持续运行 AI 推理</text>
    </g>
    <g transform="translate(0, 160)">
      <line x1="0" y1="0" x2="344" y2="0" stroke="#1A1A1A" stroke-width="1"/>
      <text x="0" y="26" fill="#fff" font-family="'Inter',Arial,sans-serif" font-size="14" font-weight="800">RISC-V 开源指令集架构</text>
      <text x="0" y="42" fill="#525252" font-family="'Inter',Arial,sans-serif" font-size="9">全栈自主可控，芯片设计灵活可定制</text>
    </g>
  </g>

  <!-- ===== STATS STRIP ===== -->
  <g transform="translate(28, 670)">
    <line x1="0" y1="0" x2="344" y2="0" stroke="#1A1A1A" stroke-width="1"/>
    <line x1="0" y1="48" x2="344" y2="48" stroke="#1A1A1A" stroke-width="1"/>
    <g transform="translate(0,8)">
      <text x="43" y="0" fill="#8E49FA" font-family="'Inter',Arial,sans-serif" font-size="28" font-weight="900" text-anchor="middle" letter-spacing="-1">10×</text>
      <text x="43" y="20" fill="#3F3F3F" font-family="'Inter',Arial,sans-serif" font-size="8" text-anchor="middle" letter-spacing="1">内存压缩</text>
    </g>
    <g transform="translate(114,8)">
      <text x="43" y="0" fill="#8E49FA" font-family="'Inter',Arial,sans-serif" font-size="28" font-weight="900" text-anchor="middle" letter-spacing="-1">60%</text>
      <text x="43" y="20" fill="#3F3F3F" font-family="'Inter',Arial,sans-serif" font-size="8" text-anchor="middle" letter-spacing="1">功耗降低</text>
    </g>
    <g transform="translate(228,8)">
      <text x="43" y="0" fill="#8E49FA" font-family="'Inter',Arial,sans-serif" font-size="28" font-weight="900" text-anchor="middle" letter-spacing="-1">1.6</text>
      <text x="43" y="20" fill="#3F3F3F" font-family="'Inter',Arial,sans-serif" font-size="8" text-anchor="middle" letter-spacing="1">GOPS 算力</text>
    </g>
  </g>

  <!-- ===== APPLICATIONS ===== -->
  <g transform="translate(28, 755)">
    <text x="0" y="0" fill="#8E49FA" font-family="'Inter',Arial,sans-serif" font-size="8" font-weight="600" letter-spacing="2">应用场景</text>

    <g transform="translate(0, 24)">
      <rect x="0" y="0" width="105" height="70" fill="#0A0A0A" stroke="#1A1A1A" stroke-width="0.8"/>
      <text x="52" y="26" fill="#a3a3a3" font-family="'Inter',Arial,sans-serif" font-size="22" text-anchor="middle">🚗</text>
      <text x="52" y="44" fill="#fff" font-family="'Noto Sans SC','PingFang SC',sans-serif" font-size="9" font-weight="600" text-anchor="middle">智能座舱</text>
      <text x="52" y="58" fill="#3F3F3F" font-family="'Noto Sans SC','PingFang SC',sans-serif" font-size="7" text-anchor="middle">车载感知</text>
    </g>
    <g transform="translate(117, 24)">
      <rect x="0" y="0" width="105" height="70" fill="#0A0A0A" stroke="#1A1A1A" stroke-width="0.8"/>
      <text x="52" y="26" fill="#a3a3a3" font-family="'Inter',Arial,sans-serif" font-size="22" text-anchor="middle">🏭</text>
      <text x="52" y="44" fill="#fff" font-family="'Noto Sans SC','PingFang SC',sans-serif" font-size="9" font-weight="600" text-anchor="middle">工业物联</text>
      <text x="52" y="58" fill="#3F3F3F" font-family="'Noto Sans SC','PingFang SC',sans-serif" font-size="7" text-anchor="middle">振动分析</text>
    </g>
    <g transform="translate(234, 24)">
      <rect x="0" y="0" width="110" height="70" fill="#0A0A0A" stroke="#1A1A1A" stroke-width="0.8"/>
      <text x="55" y="26" fill="#a3a3a3" font-family="'Inter',Arial,sans-serif" font-size="22" text-anchor="middle">⌚</text>
      <text x="55" y="44" fill="#fff" font-family="'Noto Sans SC','PingFang SC',sans-serif" font-size="9" font-weight="600" text-anchor="middle">可穿戴</text>
      <text x="55" y="58" fill="#3F3F3F" font-family="'Noto Sans SC','PingFang SC',sans-serif" font-size="7" text-anchor="middle">健康监测</text>
    </g>
  </g>

  <!-- ===== FOOTER ===== -->
  <g transform="translate(28, 910)">
    <line x1="0" y1="0" x2="344" y2="0" stroke="#1A1A1A" stroke-width="1"/>
    <text x="172" y="22" fill="#a3a3a3" font-family="'Inter',Arial,sans-serif" font-size="10" font-weight="600" text-anchor="middle" letter-spacing="1">灵瞳半导体 · Faireye Semi</text>
    <text x="172" y="38" fill="#525252" font-family="'Inter',Arial,sans-serif" font-size="8" text-anchor="middle">深圳市南山区 · 车规级 RISC-V AI 芯片设计</text>
    <text x="172" y="54" fill="#3F3F3F" font-family="'Inter',Arial,sans-serif" font-size="6.5" text-anchor="middle" letter-spacing="1">Inspired by Fairchild Semiconductor</text>
    <text x="172" y="72" fill="#8E49FA" font-family="'Inter',Arial,sans-serif" font-size="9" font-weight="700" text-anchor="middle" letter-spacing="2">www.faireyesemi.com</text>
    <text x="172" y="86" fill="#3F3F3F" font-family="'Inter',Arial,sans-serif" font-size="8" text-anchor="middle">+86 186 1380 7209</text>
  </g>
</svg>
